<svg xmlns="http://www.w3.org/2000/svg" viewBox="0 0 215.056 145.137">
  <defs>
    <style>
      .brandSVG_a_1 {
        fill: #fff;
      }
    </style>
  </defs>
  <g id="Group_1" data-name="Group 1" transform="translate(0 0)">
    <path id="Path_1" data-name="Path 1" d="M41.178,23.905c.09-.168.187-.332.269-.5a15.038,15.038,0,0,1,8.041-7.6A59.7,59.7,0,0,1,65,11.523a46.99,46.99,0,0,1,13.393.122,19.29,19.29,0,0,1,6,1.964,10.373,10.373,0,0,1,4.49,4.34,1.367,1.367,0,0,0,.635.6,19.824,19.824,0,0,1,1.846,1.021,9.1,9.1,0,0,1,3.461,4.183,2.086,2.086,0,0,0,.4.675c.058-.427.129-.852.173-1.28q.628-6.157,1.247-12.315A2.168,2.168,0,0,1,98.81,8.573c2-.223,4.008-.375,6.012-.568,2.855-.275,5.708-.562,8.563-.842q1.314-.129,2.63-.242a2.007,2.007,0,0,1,1.625.62q2.51,2.346,5.1,4.607a1.335,1.335,0,0,1,.514,1.246c-.188,1.8-.357,3.605-.539,5.407q-.416,4.094-.838,8.184-.429,4.2-.854,8.41-.408,4.056-.809,8.112-.424,4.243-.854,8.486c-.274,2.728-.54,5.458-.815,8.186s-.558,5.456-.837,8.185q-.407,3.979-.811,7.959c-.024.243,0,.491,0,.795l7.012-.695c.074-.651.149-1.246.207-1.843q.753-7.7,1.5-15.4c.377-3.907.738-7.815,1.116-11.722.376-3.882.77-7.761,1.147-11.643.327-3.355.636-6.713.964-10.068.325-3.331.664-6.659.994-9.989q.41-4.131.812-8.263c.02-.2.041-.4.076-.6a2.04,2.04,0,0,1,2.133-1.923q8.348-.716,16.695-1.439a2.641,2.641,0,0,1,2.088.66c.964.847,1.957,1.661,2.941,2.485.149.125.312.233.54.4.042-.325.083-.569.1-.814.024-.3.025-.6.047-.9a2.311,2.311,0,0,1,2.471-2.471c2.688-.164,5.378-.3,8.066-.458,2.763-.166,5.526-.336,8.288-.534a3.008,3.008,0,0,1,2.509.9c1.586,1.543,3.267,2.991,4.933,4.451a2.927,2.927,0,0,1,.912,1.433c1.175,3.983,2.1,8.026,3.007,12.075.269,1.2.52,2.409.783,3.613a1.315,1.315,0,0,0,.248.559c.052-.585.115-1.17.153-1.755q.487-7.383.968-14.766c.12-1.808.259-3.614.4-5.421.116-1.506.731-2.121,2.224-2.208,1.935-.112,3.87-.21,5.805-.311,2.765-.144,5.529-.3,8.295-.42C205.407,0,206.491.035,207.572,0a2.479,2.479,0,0,1,1.886.758c1.631,1.535,3.307,3.023,4.992,4.5a1.5,1.5,0,0,1,.6,1.369c-.132,1.478-.225,2.96-.343,4.439-.177,2.207-.363,4.414-.543,6.621q-.43,5.266-.858,10.533c-.223,2.759-.437,5.518-.659,8.277q-.421,5.231-.85,10.459-.33,4.1-.655,8.2-.426,5.3-.855,10.609-.327,4.063-.647,8.127-.434,5.418-.869,10.836-.33,4.176-.648,8.354c-.112,1.455-.216,2.911-.321,4.367-.085,1.175-.342,1.43-1.547,1.45-4.052.068-8.1.12-12.157.189q-3.321.057-6.643.155a2.8,2.8,0,0,1-1.444-.345q-3.093-1.656-6.192-3.3a1.933,1.933,0,0,1-1.032-1.4q-.513-2.513-1.037-5.024a7.644,7.644,0,0,0-.532-1.736c-.015.23-.031.459-.044.688-.2,3.467-.385,6.935-.6,10.4-.069,1.1-.421,1.4-1.5,1.48q-7.641.581-15.28,1.167-1.354.1-2.71.2a2.038,2.038,0,0,1-1.145-.26c-1.691-.89-3.41-1.725-5.121-2.577a1.157,1.157,0,0,0-.264-.053,2.61,2.61,0,0,0-.1.418q-.405,6.027-.8,12.053-.441,6.667-.884,13.334c-.073,1.09-.428,1.465-1.539,1.562-2.407.208-4.817.374-7.224.582-3.058.265-6.114.555-9.171.835-.1.009-.2.019-.3.036a4.089,4.089,0,0,1-2.877-.553c-1.785-1.031-3.621-1.975-5.462-2.9a1.768,1.768,0,0,1-1.106-1.794c.071-1.508.142-3.017.241-4.523.166-2.562.354-5.122.533-7.682.089-1.28.182-2.561.263-3.841.021-.319,0-.641,0-1.028-.458.052-.875.1-1.292.148-1.574.188-3.15.359-4.72.572-1.012.137-1.282.447-1.367,1.469-.25,3.034-.485,6.07-.738,9.1-.208,2.483-.439,4.963-.65,7.445-.136,1.605-.258,3.21-.379,4.816-.086,1.149-.4,1.514-1.556,1.639-2.626.282-5.257.525-7.884.8q-4.991.531-9.976,1.1a2.329,2.329,0,0,1-1.38-.219c-1.464-.726-2.943-1.423-4.417-2.129-.223-.106-.451-.2-.774-.344-.056.453-.109.839-.15,1.227-.054.526-.087,1.054-.151,1.578a1.152,1.152,0,0,1-1.125,1.2c-1.263.22-2.533.4-3.8.577q-5.457.747-10.918,1.471c-3.54.474-7.085.916-10.621,1.421-3.435.49-6.863,1.034-10.292,1.57q-5.964.933-11.922,1.894-6.3,1.007-12.589,2.024-6.331,1.021-12.66,2.053c-1.391.225-2.783.436-4.169.684a2.335,2.335,0,0,1-1.661-.262c-1.685-.954-3.392-1.869-5.094-2.793-.331-.179-.673-.341-1.018-.492A1.239,1.239,0,0,1,0,140.3c.02-.7.078-1.406.15-2.106.323-3.127.662-6.252.986-9.379.327-3.153.64-6.308.965-9.461.328-3.178.666-6.355.995-9.533.324-3.128.638-6.258.965-9.385q.488-4.654.99-9.307.406-3.826.811-7.655.583-5.516,1.168-11.031.55-5.141,1.115-10.28T9.283,51.887q.487-4.427.965-8.853.5-4.539,1-9.078.406-3.714.809-7.428c.2-1.825.392-3.652.606-5.476a2.062,2.062,0,0,1,1.91-2.006c2.063-.318,4.131-.6,6.195-.917q5.708-.864,11.412-1.739c.647-.1,1.294-.195,1.944-.261a1.616,1.616,0,0,1,1.318.425c1.693,1.543,3.38,3.092,5.115,4.587a1.654,1.654,0,0,1,.62,1.72c-.062.332-.085.671-.126,1.006ZM86.9,126.674c.19-.017.314-.025.436-.039,1.824-.213,3.646-.447,5.473-.638,4.028-.421,8.059-.82,12.089-1.23.691-.071.736-.122.791-.836.15-1.931.29-3.864.45-5.795q.555-6.7,1.125-13.39c.069-.827.1-1.66.224-2.478a2.154,2.154,0,0,1,1.981-1.962c.446-.071.9-.109,1.348-.165q3.969-.492,7.939-.986c1.122-.142,2.241-.317,3.366-.444a1.75,1.75,0,0,1,2.184,1.921c.006.654-.032,1.309-.074,1.962q-.273,4.18-.56,8.361c-.178,2.611-.364,5.222-.538,7.834-.068,1.022-.112,2.046-.171,3.159l18.392-1.578c.053-.347.109-.616.131-.888.056-.7.1-1.4.142-2.109.353-5.374.7-10.749,1.06-16.122q.588-8.663,1.21-17.322.589-8.246,1.206-16.49.6-8.018,1.209-16.035.521-6.812,1.054-13.623.677-8.617,1.363-17.234.582-7.338,1.17-14.675c.009-.118,0-.238,0-.455L132.615,6.9c-.079.76-.155,1.482-.228,2.2q-.427,4.244-.851,8.487-.411,4.169-.812,8.339-.418,4.282-.841,8.564c-.275,2.829-.541,5.66-.816,8.49-.328,3.381-.665,6.761-.992,10.142-.277,2.855-.541,5.711-.817,8.566q-.5,5.222-1.018,10.443c-.14,1.427-.276,2.855-.441,4.279a1.967,1.967,0,0,1-1.751,1.885,5.188,5.188,0,0,1-.6.079q-6.1.472-12.138,1.443c-1.764.283-2.486-.36-2.317-2.126.267-2.78.549-5.559.829-8.337q.38-3.756.77-7.509.432-4.242.862-8.486.406-4.017.806-8.036.418-4.169.842-8.336c.274-2.729.538-5.458.813-8.187q.491-4.844.992-9.686.5-4.881.986-9.763c.017-.164,0-.331,0-.535L98.657,10.479C94.4,49.179,90.388,87.857,86.9,126.674Zm82.28-32.154c.042-.237.094-.43.109-.626.1-1.33.228-2.659.282-3.991.222-5.382.4-10.766.636-16.147.178-4,.427-7.991.648-11.986a1.826,1.826,0,0,1,.789-1.477.93.93,0,0,1,1.535.534c.035.12.046.248.073.37.978,4.393,1.929,8.793,2.941,13.178,1.227,5.317,2.511,10.62,3.755,15.932.268,1.145.474,2.3.718,3.5l19.742-.358q3.674-45.8,7.343-91.531c-6.012-.041-11.892.535-17.833.783-.029.321-.057.567-.073.813q-.177,2.6-.349,5.2-.438,6.554-.877,13.107c-.158,2.335-.3,4.672-.488,7-.279,3.537-.59,7.071-.881,10.607-.1,1.254-.189,2.51-.284,3.764-.056.738-.365,1.084-1.034,1.167a1.1,1.1,0,0,1-1.4-.812c-.1-.284-.192-.572-.279-.861-1.592-5.3-2.745-10.715-3.937-16.118q-1.935-8.766-3.928-17.518c-.358-1.567-.831-3.109-1.272-4.657-.175-.612-.224-.635-.848-.612-.578.022-1.154.087-1.732.121q-6.9.41-13.793.816c-.495.03-.988.091-1.495.139-2.211,30.382-4.416,60.69-6.628,91.09ZM81.7,105.643a3.534,3.534,0,0,0-.363,0q-7.9,1.238-15.8,2.477c-4.448.691-8.9,1.358-13.349,2.044q-6.6,1.017-13.195,2.053-6.073.952-12.146,1.921c-.819.129-1.638.295-2.462.343a1.3,1.3,0,0,1-1.466-1.43,9.091,9.091,0,0,1,.071-1.129q.5-4.575,1.014-9.15.479-4.275.963-8.55.5-4.386,1-8.772.483-4.236.968-8.473.49-4.273.987-8.546.484-4.2.966-8.4c.376-3.223.762-6.445,1.14-9.667.376-3.2.742-6.4,1.122-9.6q.637-5.356,1.293-10.713.585-4.831,1.169-9.664c.091-.762.162-1.526.249-2.348-.438.057-.761.093-1.082.143-2.112.327-4.223.667-6.337.984q-5.67.851-11.345,1.674c-.387.057-.567.2-.608.61-.243,2.377-.506,4.753-.764,7.128q-.405,3.753-.813,7.5-.5,4.539-1,9.077-.411,3.751-.818,7.5-.493,4.5-.992,9-.412,3.751-.819,7.5c-.329,3-.67,6-.991,9-.235,2.2-.438,4.406-.669,6.608-.325,3.1-.664,6.2-.993,9.305q-.412,3.9-.814,7.807-.5,4.841-1.008,9.683-.408,3.942-.811,7.883-.5,4.8-1,9.609-.421,4.053-.846,8.107c-.084.817-.155,1.636-.243,2.558,25.709-4.251,51.317-8.428,77.061-11.7a1.577,1.577,0,0,0,.354-.14C80.114,120.484,80.9,113.091,81.7,105.643Zm6.989-75.908c0-.579,0-1.158,0-1.737a35.528,35.528,0,0,0-.337-5.643,9.319,9.319,0,0,0-5.895-7.536,19.01,19.01,0,0,0-4.032-1.225,44.45,44.45,0,0,0-14.056-.088A60.275,60.275,0,0,0,50.525,17.37a13.454,13.454,0,0,0-8.205,8.874,67.429,67.429,0,0,0-1.872,7.536c-.578,3.017-.921,6.065-1.239,9.117-.43,4.128-.875,8.255-1.3,12.383-.335,3.253-.648,6.509-.972,9.763q-.5,4.994-1,9.987c-.336,3.4-.677,6.809-.991,10.215a24.075,24.075,0,0,0,.071,6.323,11.958,11.958,0,0,0,1.945,5.184,13.332,13.332,0,0,0,9.99,5.644,55.62,55.62,0,0,0,12.5-.414,48.363,48.363,0,0,0,15.368-4.917A13.658,13.658,0,0,0,81.852,88.6a36.741,36.741,0,0,0,1.331-6.648c.485-4.147.939-8.3,1.415-12.446q.869-7.572,1.752-15.141.793-6.9,1.577-13.794C88.334,36.973,88.612,33.361,88.685,29.735ZM53.951,107.993l-.008-.108c-.137-.012-.275-.026-.413-.037a14.3,14.3,0,0,1-8.587-3.471,3.113,3.113,0,0,0-1.177-.625C38.5,102.1,34.827,98.86,33.432,93.359c-.1-.394-.187-.792-.28-1.188l-.132.005c-.726,6.436-1.453,12.871-2.19,19.407Zm32.67.155c.254-.821,1.178-10.857,1.075-11.462-.083.115-.161.209-.224.313a13.933,13.933,0,0,1-5.754,5.284c-1.143.577-2.309,1.106-3.464,1.658-.206.1-.408.205-.735.369.205,0,.256.007.3,0,1.291-.2,2.579-.414,3.873-.593a1.763,1.763,0,0,1,1.747.77C84.422,105.723,85.507,106.877,86.621,108.148Z"/>
    <path id="Path_2" data-name="Path 2" d="M153.614,104.72c.534-.052.979-.106,1.426-.136,2.385-.161,4.769-.346,7.157-.457a7.908,7.908,0,0,1,2.31.227,3.28,3.28,0,0,1,2.562,3.162,7.333,7.333,0,0,1-.378,2.9,3.89,3.89,0,0,1-1.451,1.975c-.162.116-.318.241-.509.386a1.171,1.171,0,0,0,.233.208,3.531,3.531,0,0,1,2.141,3.369,8.832,8.832,0,0,1-.32,2.6,4.9,4.9,0,0,1-3.218,3.256,13.729,13.729,0,0,1-3.926.683c-2.184.147-4.372.241-6.558.354-.2.011-.4,0-.687,0a40.975,40.975,0,0,1,.216-4.591c.087-1.557.225-3.112.338-4.668q.167-2.3.328-4.593C153.388,107.87,153.5,106.342,153.614,104.72Zm4.558,10.838c-.058.988-.111,1.877-.171,2.889.987-.085,1.888-.1,2.763-.257.729-.132,1.083-.9.973-1.81-.08-.666-.414-.946-1.292-.95C159.72,115.426,158.995,115.508,158.172,115.558Zm.372-6.486c-.05.86-.1,1.667-.145,2.525.632,0,1.154.022,1.672-.009a2.639,2.639,0,0,0,.869-.2,1.453,1.453,0,0,0,.756-1.571c-.148-.617-.542-.9-1.294-.878C159.806,108.958,159.212,109.022,158.544,109.072Z"/>
    <path id="Path_3" data-name="Path 3" d="M192.029,102.6c.6-.041,1.1-.089,1.6-.105,2.263-.074,4.525-.147,6.789-.2a6.847,6.847,0,0,1,3.067.67,4.154,4.154,0,0,1,2.412,3,8.535,8.535,0,0,1-.572,5.456,5.334,5.334,0,0,1-1.78,2.209c-.2.145-.387.311-.647.522,1.187,2,2.362,3.973,3.606,6.068-.439.049-.751.1-1.065.116-1.406.075-2.815.119-4.22.221a.918.918,0,0,1-1-.587c-.7-1.31-1.436-2.6-2.161-3.891-.122-.217-.252-.431-.371-.632h-1.108a4.126,4.126,0,0,0-.115.532q-.157,2.031-.3,4.063c-.051.716-.078.75-.8.786-1.505.075-3.011.145-4.6.22a30.152,30.152,0,0,1,.19-3.7c.055-1.231.175-2.458.266-3.687s.185-2.459.276-3.688.181-2.458.27-3.687S191.94,103.839,192.029,102.6Zm4.818,8.175a16.569,16.569,0,0,0,2.321-.139,1.86,1.86,0,0,0,1.311-2.454,1.05,1.05,0,0,0-.863-.76,11.156,11.156,0,0,0-2.445.069,2.977,2.977,0,0,0-.085.369C197.008,108.778,196.934,109.7,196.847,110.77Z"/>
    <path id="Path_4" data-name="Path 4" d="M182.681,108c-.04.689-.074,1.281-.115,1.979l6.035-.311c-.1,1.543-.205,3.007-.309,4.54a23.246,23.246,0,0,1-2.962.175c-.977.06-1.955.105-2.966.158a4.6,4.6,0,0,0-.2,2.048l6.966-.308c-.119,1.667-.229,3.21-.346,4.854-4.129.242-8.208.468-12.277.65-.15-.643.926-17.533,1.174-18.556,4.029-.341,8.094-.366,12.2-.507a3.221,3.221,0,0,1,.064.548c-.081,1.23-.171,2.46-.263,3.689-.046.618-.1.687-.721.715-1.483.069-2.968.117-4.451.186C183.937,107.882,183.364,107.942,182.681,108Z"/>
    <path id="Path_5" data-name="Path 5" d="M168.661,122.046c.083-1.388.158-2.717.242-4.045q.273-4.328.551-8.656c.107-1.681.214-3.363.31-5.044.019-.341.092-.593.494-.609,1.582-.065,3.164-.135,4.746-.2.041,0,.085.043.227.119-.029.594-.052,1.238-.093,1.881q-.27,4.217-.549,8.43-.237,3.651-.476,7.3c-.037.555-.09.618-.612.649-1.481.088-2.963.163-4.445.238A2.362,2.362,0,0,1,168.661,122.046Z"/>
    <path id="Path_6" data-name="Path 6" class="brandSVG_a_1" d="M86.9,126.674c3.489-38.817,7.5-77.5,11.758-116.2L115.9,8.824c0,.2.015.371,0,.535q-.489,4.881-.986,9.763-.494,4.844-.992,9.686c-.275,2.729-.539,5.458-.813,8.187q-.417,4.168-.842,8.336-.405,4.018-.806,8.036-.428,4.243-.862,8.486-.384,3.755-.77,7.509c-.28,2.778-.562,5.557-.829,8.337-.169,1.766.553,2.409,2.317,2.126q6.039-.969,12.138-1.443a5.188,5.188,0,0,0,.6-.079,1.967,1.967,0,0,0,1.751-1.885c.165-1.424.3-2.852.441-4.279q.513-5.222,1.018-10.443c.276-2.855.54-5.711.817-8.566.327-3.381.664-6.761.992-10.142.275-2.83.541-5.661.816-8.49q.416-4.283.841-8.564.408-4.17.812-8.339.42-4.245.851-8.487c.073-.723.149-1.445.228-2.2L149.9,5.417c0,.217.008.337,0,.455q-.584,7.338-1.17,14.675-.686,8.616-1.363,17.234-.534,6.812-1.054,13.623-.61,8.018-1.209,16.035-.613,8.244-1.206,16.49-.62,8.66-1.21,17.322c-.364,5.373-.707,10.748-1.06,16.122-.046.7-.086,1.407-.142,2.109-.022.272-.078.541-.131.888l-18.392,1.578c.059-1.113.1-2.137.171-3.159.174-2.612.36-5.223.538-7.834q.284-4.181.56-8.361c.042-.653.08-1.308.074-1.962a1.75,1.75,0,0,0-2.184-1.921c-1.125.127-2.244.3-3.366.444q-3.969.5-7.939.986c-.449.056-.9.094-1.348.165a2.154,2.154,0,0,0-1.981,1.962c-.126.818-.155,1.651-.224,2.478q-.564,6.7-1.125,13.39c-.16,1.931-.3,3.864-.45,5.795-.055.714-.1.765-.791.836-4.03.41-8.061.809-12.089,1.23-1.827.191-3.649.425-5.473.638C87.213,126.649,87.089,126.657,86.9,126.674Z"/>
    <path id="Path_7" data-name="Path 7" class="brandSVG_a_1" d="M169.179,94.52,150.62,95.95c2.212-30.4,4.417-60.708,6.628-91.09.507-.048,1-.109,1.495-.139q6.9-.411,13.793-.816c.578-.034,1.154-.1,1.732-.121.624-.023.673,0,.848.612.441,1.548.914,3.09,1.272,4.657q2,8.751,3.928,17.518c1.192,5.4,2.345,10.814,3.937,16.118.087.289.178.577.279.861a1.1,1.1,0,0,0,1.4.812c.669-.083.978-.429,1.034-1.167.1-1.254.181-2.51.284-3.764.291-3.536.6-7.07.881-10.607.184-2.333.33-4.67.488-7q.441-6.553.877-13.107.174-2.6.349-5.2c.016-.246.044-.492.073-.813,5.941-.248,11.821-.824,17.833-.783q-3.675,45.8-7.343,91.531l-19.742.358c-.244-1.2-.45-2.355-.718-3.5C178.7,85,177.419,79.692,176.192,74.375c-1.012-4.385-1.963-8.785-2.941-13.178-.027-.122-.038-.25-.073-.37a.93.93,0,0,0-1.535-.534,1.826,1.826,0,0,0-.789,1.477c-.221,3.995-.47,7.989-.648,11.986-.239,5.381-.414,10.765-.636,16.147-.054,1.332-.181,2.661-.282,3.991C169.273,94.09,169.221,94.283,169.179,94.52Z"/>
    <path id="Path_8" data-name="Path 8" class="brandSVG_a_1" d="M81.7,105.643c-.794,7.448-1.582,14.841-2.372,22.248a1.577,1.577,0,0,1-.354.14c-25.744,3.276-51.352,7.453-77.061,11.7.088-.922.159-1.741.243-2.558q.42-4.055.846-8.107.5-4.8,1-9.609.406-3.942.811-7.883.5-4.842,1.008-9.683.406-3.9.814-7.807c.329-3.1.668-6.2.993-9.305.231-2.2.434-4.407.669-6.608.321-3,.662-6,.991-9q.413-3.752.819-7.5.494-4.5.992-9,.411-3.751.818-7.5.5-4.538,1-9.077.41-3.75.813-7.5c.258-2.375.521-4.751.764-7.128.041-.4.221-.553.608-.61q5.674-.824,11.345-1.674c2.114-.317,4.225-.657,6.337-.984.321-.05.644-.086,1.082-.143-.087.822-.158,1.586-.249,2.348q-.579,4.833-1.169,9.664-.648,5.357-1.293,10.713c-.38,3.2-.746,6.4-1.122,9.6-.378,3.222-.764,6.444-1.14,9.667q-.489,4.2-.966,8.4-.492,4.273-.987,8.546-.488,4.236-.968,8.473-.5,4.386-1,8.772-.484,4.275-.963,8.55-.511,4.573-1.014,9.15a9.091,9.091,0,0,0-.071,1.129,1.3,1.3,0,0,0,1.466,1.43c.824-.048,1.643-.214,2.462-.343q6.073-.957,12.146-1.921,6.6-1.035,13.195-2.053c4.449-.686,8.9-1.353,13.349-2.044q7.9-1.227,15.8-2.477A3.534,3.534,0,0,1,81.7,105.643Z"/>
    <path id="Path_9" data-name="Path 9" class="brandSVG_a_1" d="M88.685,29.735c-.073,3.626-.351,7.238-.758,10.84q-.779,6.9-1.577,13.794Q85.477,61.94,84.6,69.51c-.476,4.148-.93,8.3-1.415,12.446A36.741,36.741,0,0,1,81.852,88.6a13.658,13.658,0,0,1-7.031,8.461,48.363,48.363,0,0,1-15.368,4.917,55.62,55.62,0,0,1-12.5.414,13.332,13.332,0,0,1-9.99-5.644,11.958,11.958,0,0,1-1.945-5.184,24.075,24.075,0,0,1-.071-6.323c.314-3.406.655-6.811.991-10.215q.494-5,1-9.987c.324-3.254.637-6.51.972-9.763.425-4.128.87-8.255,1.3-12.383.318-3.052.661-6.1,1.239-9.117a67.429,67.429,0,0,1,1.872-7.536,13.454,13.454,0,0,1,8.205-8.874,60.275,60.275,0,0,1,13.839-3.864,44.45,44.45,0,0,1,14.056.088,19.01,19.01,0,0,1,4.032,1.225,9.319,9.319,0,0,1,5.895,7.536A35.528,35.528,0,0,1,88.684,28C88.689,28.577,88.685,29.156,88.685,29.735ZM52.622,79.408l.053,0c0,.252-.01.5,0,.755a4.417,4.417,0,0,0,4.1,4.529,5.046,5.046,0,0,0,.6.043,16.371,16.371,0,0,0,6.82-1.413,5.716,5.716,0,0,0,3.427-4.4c.09-.443.132-.9.179-1.346.22-2.127.432-4.255.652-6.383q.5-4.842,1.009-9.684.344-3.266.695-6.53c.265-2.451.538-4.9.8-7.353.284-2.626.587-5.251.839-7.88.2-2.128.395-4.261.488-6.4a6.825,6.825,0,0,0-.376-2.362,3.72,3.72,0,0,0-3.051-2.612,11.437,11.437,0,0,0-8.054,1.488,5.014,5.014,0,0,0-2.542,3.479c-.25,1.283-.466,2.574-.632,3.87-.406,3.168-.776,6.342-1.155,9.514-.376,3.148-.743,6.3-1.119,9.444q-.569,4.758-1.147,9.516-.582,4.832-1.159,9.666C52.9,76.705,52.765,78.057,52.622,79.408Z"/>
    <path id="Path_10" data-name="Path 10" d="M52.622,79.408c.143-1.351.273-2.7.431-4.052q.568-4.834,1.159-9.666.573-4.758,1.147-9.516c.376-3.148.743-6.3,1.119-9.444.379-3.172.749-6.346,1.155-9.514.166-1.3.382-2.587.632-3.87a5.014,5.014,0,0,1,2.542-3.479,11.437,11.437,0,0,1,8.054-1.488,3.72,3.72,0,0,1,3.051,2.612,6.825,6.825,0,0,1,.376,2.362c-.093,2.135-.284,4.268-.488,6.4-.252,2.629-.555,5.254-.839,7.88-.265,2.451-.538,4.9-.8,7.353q-.353,3.266-.695,6.53-.507,4.842-1.009,9.684c-.22,2.128-.432,4.256-.652,6.383-.047.45-.089.9-.179,1.346a5.716,5.716,0,0,1-3.427,4.4,16.371,16.371,0,0,1-6.82,1.413,5.046,5.046,0,0,1-.6-.043,4.417,4.417,0,0,1-4.1-4.529c-.012-.251,0-.5,0-.755ZM70.315,33.993A10.518,10.518,0,0,0,67.3,35.355a3.617,3.617,0,0,0-1.556,1.975,8.125,8.125,0,0,0-.358,1.462q-.7,5.233-1.354,10.473c-.39,3.145-.747,6.294-1.123,9.441q-.642,5.356-1.291,10.712-.662,5.506-1.318,11.013c-.084.71-.14,1.424-.219,2.249,1.044-.3,1.967-.543,2.871-.838a4.012,4.012,0,0,0,2.884-3.6c.078-.624.13-1.251.195-1.877q.646-6.19,1.295-12.383.628-6,1.26-12.007.866-8.217,1.725-16.435C70.359,35.046,70.315,34.544,70.315,33.993Z"/>
  </g>
</svg>
